HIERARCHY
ROOT Pelvis
{
	OFFSET 0.000000 0.000000 0.000000
	CHANNELS 6 Xposition Yposition Zposition Xrotation Yrotation Zrotation
	JOINT LeftUpLeg_virtual
	{
		OFFSET 0.000000 0.000000 0.000000
		CHANNELS 3 Xrotation Yrotation Zrotation
		JOINT LeftUpLeg
		{
			OFFSET 18.735201 -5.666702 -4.541200
			CHANNELS 3 Xrotation Yrotation Zrotation
			JOINT LeftLeg
			{
				OFFSET -0.021200 -31.938179 0.493100
				CHANNELS 3 Xrotation Yrotation Zrotation
				JOINT LeftFoot
				{
					OFFSET 0.021200 -31.938179 -4.336299
					CHANNELS 3 Xrotation Yrotation Zrotation
					JOINT LeftToeBase
					{
						OFFSET 0.943001 -26.722000 15.023500
						CHANNELS 3 Xrotation Yrotation Zrotation
						End Site
						{
							OFFSET 0 0 0
						}
					}
				}
			}
		}
	}
	JOINT RightUpLeg_virtual
	{
		OFFSET 0.000000 0.000000 0.000000
		CHANNELS 3 Xrotation Yrotation Zrotation
		JOINT RightUpLeg
		{
			OFFSET -18.735201 -5.666702 -4.541200
			CHANNELS 3 Xrotation Yrotation Zrotation
			JOINT RightLeg
			{
				OFFSET 0.018946 -31.938133 0.493100
				CHANNELS 3 Xrotation Yrotation Zrotation
				JOINT RightFoot
				{
					OFFSET -0.018946 -31.938126 -4.336299
					CHANNELS 3 Xrotation Yrotation Zrotation
					JOINT RightToeBase
					{
						OFFSET -0.943001 -26.722004 15.023500
						CHANNELS 3 Xrotation Yrotation Zrotation
						End Site
						{
							OFFSET 0 0 0
						}
					}
				}
			}
		}
	}
	JOINT Hips_virtual
	{
		OFFSET 0.000000 0.000000 0.000000
		CHANNELS 3 Xrotation Yrotation Zrotation
		JOINT Hips
		{
			OFFSET -0.000000 -0.000000 -0.000000
			CHANNELS 3 Xrotation Yrotation Zrotation
			JOINT Spine
			{
				OFFSET 0.000000 10.199997 -0.299500
				CHANNELS 3 Xrotation Yrotation Zrotation
				JOINT Spine1
				{
					OFFSET 0.000000 11.900002 -1.516600
					CHANNELS 3 Xrotation Yrotation Zrotation
					JOINT Spine2
					{
						OFFSET 0.000000 13.600006 -2.842500
						CHANNELS 3 Xrotation Yrotation Zrotation
						JOINT Neck_virtual
						{
							OFFSET 0.000000 0.000000 0.000000
							CHANNELS 3 Xrotation Yrotation Zrotation
							JOINT Neck
							{
								OFFSET 0.000000 9.624100 -2.890100
								CHANNELS 3 Xrotation Yrotation Zrotation
								JOINT Head
								{
									OFFSET 0.000000 14.068802 -1.351900
									CHANNELS 3 Xrotation Yrotation Zrotation
									End Site
									{
										OFFSET 0 0 0
									}
								}
							}
						}
						JOINT LeftShoulder_virtual
						{
							OFFSET 0.000000 0.000000 0.000000
							CHANNELS 3 Xrotation Yrotation Zrotation
							JOINT LeftShoulder
							{
								OFFSET 15.263000 10.923401 -0.547700
								CHANNELS 3 Xrotation Yrotation Zrotation
								JOINT LeftArm
								{
									OFFSET 25.438599 -2.830597 -13.032500
									CHANNELS 3 Xrotation Yrotation Zrotation
									JOINT LeftForeArm
									{
										OFFSET 29.960503 0.000000 0.000000
										CHANNELS 3 Xrotation Yrotation Zrotation
										JOINT LeftHand
										{
											OFFSET 27.849251 0.000000 0.000000
											CHANNELS 3 Xrotation Yrotation Zrotation
											End Site
											{
												OFFSET 0 0 0
											}
										}
									}
								}
							}
						}
						JOINT RightShoulder_virtual
						{
							OFFSET 0.000000 0.000000 0.000000
							CHANNELS 3 Xrotation Yrotation Zrotation
							JOINT RightShoulder
							{
								OFFSET -15.263000 10.923401 -0.547700
								CHANNELS 3 Xrotation Yrotation Zrotation
								JOINT RightArm
								{
									OFFSET -25.438599 -2.830597 -13.032500
									CHANNELS 3 Xrotation Yrotation Zrotation
									JOINT RightForeArm
									{
										OFFSET -29.960503 0.000000 0.000000
										CHANNELS 3 Xrotation Yrotation Zrotation
										JOINT RightHand
										{
											OFFSET -27.849251 0.000000 0.000000
											CHANNELS 3 Xrotation Yrotation Zrotation
											End Site
											{
												OFFSET 0 0 0
											}
										}
									}
								}
							}
						}
					}
				}
			}
		}
	}
}
MOTION
Frames: 11
Frame Time: 0.03333333
0.506953 75.089684 2.461665 0.000000 0.000000 0.000000 7.472469 1.999118 -3.196637 33.541266 18.724115 4.556560 11.592046 -5.651767 4.862746 -43.418587 -2.008046 -0.925337 0.000000 0.000000 0.000000 7.472469 1.999118 -3.196637 -72.200482 -3.519037 -0.246047 77.141714 -2.797946 -0.207618 -12.532354 3.038425 -5.251238 0.000000 0.000000 0.000000 7.472469 1.999118 -3.196637 0.000000 0.000000 0.000000 1.541827 -1.688468 1.643263 4.463941 -2.897045 3.069452 0.000000 0.000000 0.000000 4.470553 -2.960904 2.997962 -2.661838 0.920827 -0.347962 0.000000 0.000000 0.000000 4.470553 -2.960904 2.997962 -0.863853 7.389831 -0.025976 -11.563467 10.383923 -66.345514 -179.999978 -64.819889 -179.999964 0.000000 0.000000 0.000000 4.470553 -2.960904 2.997962 0.518558 -7.917612 14.973079 -19.108962 0.823922 54.259993 -179.999923 65.206136 179.999937 0.000000 0.000000 0.000000 
0.855844 80.247856 4.317117 0.000000 0.000000 0.000000 7.041922 5.561216 -1.476383 20.166422 14.207279 3.920998 25.035083 -1.411875 10.249271 -29.391643 -0.965886 -2.542188 0.000000 0.000000 0.000000 7.041922 5.561216 -1.476383 -62.624789 -3.067058 -2.359419 68.732603 -4.451018 -0.602663 -13.224712 3.194565 -6.147801 0.000000 0.000000 0.000000 7.041922 5.561216 -1.476383 0.000000 0.000000 0.000000 2.307059 -1.831023 1.798539 3.099219 -3.162404 2.168580 0.000000 0.000000 0.000000 3.091625 -3.180354 2.120447 -2.264440 0.783676 -0.581132 0.000000 0.000000 0.000000 3.091625 -3.180354 2.120447 -0.472603 4.837150 -0.286772 -18.246978 6.118550 -64.201114 -179.999950 -68.040726 -179.999978 0.000000 0.000000 0.000000 3.091625 -3.180354 2.120447 0.323427 -7.582997 12.788909 -22.735699 4.589335 55.000529 -179.999868 65.453136 179.999855 0.000000 0.000000 0.000000 
1.647761 84.301750 4.161633 0.000000 0.000000 0.000000 5.837799 9.071235 -0.701534 -0.848491 8.972528 4.910497 40.018662 5.535421 13.309247 4.132471 -1.081638 -5.897432 0.000000 0.000000 0.000000 5.837799 9.071235 -0.701534 -55.124503 -2.957237 -3.512136 59.614765 -6.748980 -1.420597 -9.772031 3.172528 -6.629261 0.000000 0.000000 0.000000 5.837799 9.071235 -0.701534 0.000000 0.000000 0.000000 4.147078 -1.671956 3.065088 2.040741 -3.016033 1.391133 0.000000 0.000000 0.000000 2.006032 -2.989534 1.398626 -1.783878 0.623776 -0.927523 0.000000 0.000000 0.000000 2.006032 -2.989534 1.398626 0.068472 1.355724 -0.866198 -25.917125 -0.435044 -62.080675 -179.999732 -72.913970 -179.999759 0.000000 0.000000 0.000000 2.006032 -2.989534 1.398626 0.210353 -5.995286 10.576177 -27.995665 7.628509 54.628755 -179.999964 66.269145 179.999950 0.000000 0.000000 0.000000 
2.307547 87.122566 3.532178 0.000000 0.000000 0.000000 4.285998 12.204993 -0.538795 -3.758044 7.206761 5.143802 28.292997 2.456664 5.537558 41.111592 0.000760 5.101371 0.000000 0.000000 0.000000 4.285998 12.204993 -0.538795 -50.956042 -2.027432 -4.636512 52.662801 -10.126282 -2.551594 -0.884796 2.436466 -3.318946 0.000000 0.000000 0.000000 4.285998 12.204993 -0.538795 0.000000 0.000000 0.000000 5.847716 -1.197950 4.384619 1.949363 -2.659792 0.899520 0.000000 0.000000 0.000000 1.896969 -2.616143 0.938718 -1.325991 0.436883 -1.225731 0.000000 0.000000 0.000000 1.896969 -2.616143 0.938718 0.568133 -2.178353 -0.868056 -35.106698 -7.404374 -61.207060 -179.998434 -78.716550 -179.998475 0.000000 0.000000 0.000000 1.896969 -2.616143 0.938718 0.207307 -3.936308 8.797185 -35.419134 9.963633 52.813427 179.999991 68.060807 -179.999991 0.000000 0.000000 0.000000 
2.635168 88.464211 3.392858 0.000000 0.000000 0.000000 2.994794 14.069266 -0.760473 -16.288741 5.424190 6.303348 43.824027 3.894986 3.244427 51.310744 -0.011010 3.069192 0.000000 0.000000 0.000000 2.994794 14.069266 -0.760473 -49.377866 -0.926957 -5.809904 48.788345 -9.947320 -3.558866 10.776515 -2.155383 3.717537 0.000000 0.000000 0.000000 2.994794 14.069266 -0.760473 0.000000 0.000002 0.000000 6.457491 -0.404400 5.422814 2.978382 -2.041430 0.410065 0.000000 0.000000 0.000000 2.915021 -2.015022 0.447750 -0.972901 0.242374 -1.370255 0.000000 0.000000 0.000000 2.915021 -2.015022 0.447750 1.014105 -5.352208 0.544285 -45.652233 -13.589406 -61.251538 -179.999814 -84.906648 -179.999814 0.000000 0.000000 0.000000 2.915021 -2.015022 0.447750 0.089339 -4.052606 7.037430 -44.633589 13.796000 52.404756 -179.999609 72.352535 179.999595 0.000000 0.000000 0.000000 
2.453443 89.751274 3.893818 0.000000 0.000000 0.000000 2.401247 14.025402 -0.953957 -29.424462 5.711910 7.563559 60.912781 4.451486 0.712846 52.723518 -0.255908 2.078894 0.000000 0.000000 0.000000 2.401247 14.025402 -0.953957 -47.171165 -1.310768 -6.339224 42.851596 -8.624395 -2.677450 21.067978 -0.260545 6.687935 0.000000 0.000000 0.000000 2.401247 14.025402 -0.953957 0.000000 0.000000 0.000000 6.238337 0.492735 5.100010 4.448039 -1.372282 0.550578 0.000000 0.000000 0.000000 4.392854 -1.358246 0.586388 -0.642589 0.181483 -1.510347 0.000000 0.000000 0.000000 4.392854 -1.358246 0.586388 1.219305 -6.840145 2.759383 -56.339615 -18.196310 -62.362701 0.001929 -88.669837 0.001986 0.000000 0.000000 0.000000 4.392854 -1.358246 0.586388 -0.418006 -6.889079 3.645291 -55.571379 19.095901 56.081300 179.999240 80.569267 -179.999267 0.000000 0.000000 0.000000 
2.092998 90.621185 4.553459 0.000000 0.000000 0.000000 1.619086 12.737619 -1.041888 -42.019860 7.132088 9.200360 75.636955 5.366907 -0.819027 51.903304 -0.077084 2.566344 0.000000 0.000000 0.000000 1.619086 12.737619 -1.041888 -45.507880 -3.384534 -2.728873 38.931894 -4.113113 -1.523066 24.803009 2.404506 0.740999 0.000000 0.000000 0.000000 1.619086 12.737619 -1.041888 0.000000 0.000001 0.000000 7.070065 1.289044 3.725813 5.162423 -0.950533 1.327612 0.000000 0.000000 0.000000 5.114985 -0.892413 1.373416 -0.009189 0.301572 -1.652898 0.000000 0.000000 0.000000 5.114985 -0.892413 1.373416 1.174587 -6.511878 5.488877 -66.383387 -19.791054 -64.668620 0.000617 -82.740932 0.000598 0.000000 0.000000 0.000000 5.114985 -0.892413 1.373416 -1.198276 -9.446106 -1.192411 -68.157631 22.444247 62.195095 0.001332 87.962311 -0.001309 0.000000 0.000000 0.000000 
1.646165 90.476051 5.467356 0.000000 0.000000 0.000000 -0.289890 11.461559 -0.790112 -53.672040 8.650570 10.496221 88.215411 6.660689 -0.943210 51.021144 0.553356 4.378793 0.000000 0.000000 0.000000 -0.289890 11.461559 -0.790112 -43.921917 -4.444467 1.860088 41.053255 1.695516 -2.257763 23.171203 2.099525 -2.009621 0.000000 0.000000 0.000000 -0.289890 11.461559 -0.790112 0.000000 -0.000001 0.000000 9.581856 1.637044 2.135208 4.813435 -0.918603 1.966179 0.000000 0.000000 0.000000 4.770643 -0.770865 2.017520 1.080392 0.514536 -1.640017 0.000000 0.000000 0.000000 4.770643 -0.770865 2.017520 1.292849 -7.411987 7.174133 -74.254682 -19.742230 -64.317965 0.000189 -78.191712 0.000171 0.000000 0.000000 0.000000 4.770643 -0.770865 2.017520 -1.509835 -6.959345 -7.781837 -77.718202 19.877713 64.551510 -0.000061 77.932240 0.000074 0.000000 0.000000 0.000000 
1.327457 89.419197 6.751649 0.000000 0.000000 0.000000 -2.925202 11.144510 -0.393671 -64.525282 9.802445 10.601149 98.415526 8.290267 -0.166876 50.840090 1.599559 7.304922 0.000000 0.000000 0.000000 -2.925202 11.144510 -0.393671 -42.444271 -4.982393 2.726530 49.080209 1.166366 -1.853221 14.526329 2.260351 -3.531708 0.000000 0.000000 0.000000 -2.925202 11.144510 -0.393671 0.000000 -0.000001 0.000000 12.370290 1.479610 1.036714 4.378282 -1.227938 2.184094 0.000000 0.000000 0.000000 4.349976 -0.997348 2.245316 2.196283 0.713273 -1.522367 0.000000 0.000000 0.000000 4.349976 -0.997348 2.245316 1.681144 -8.837518 10.762808 -80.175192 -17.035127 -63.387092 -0.000014 -76.684269 -0.000030 0.000000 0.000000 0.000000 4.349976 -0.997348 2.245316 -1.466470 -3.826227 -15.559799 -83.463662 13.436036 64.734983 0.000029 73.211384 -0.000004 0.000000 0.000000 0.000000 
1.375565 88.183014 8.221479 0.000000 0.000000 0.000000 -5.269376 11.684616 -0.485404 -73.712931 9.655802 9.516245 105.043358 9.980087 0.832061 52.468345 2.560989 9.542987 0.000000 0.000000 0.000000 -5.269376 11.684616 -0.485404 -35.542443 -6.368343 1.137237 54.357920 1.300678 0.370345 -4.945708 2.848508 -4.601914 0.000000 0.000000 0.000000 -5.269376 11.684616 -0.485404 0.000000 0.000001 0.000000 13.944764 1.305388 0.793377 4.528584 -1.595763 2.084646 0.000000 0.000000 0.000000 4.519716 -1.316296 2.156810 3.058453 0.781876 -1.276413 0.000000 0.000000 0.000000 4.519716 -1.316296 2.156810 1.694797 -8.154512 15.786886 -84.872730 -12.975898 -64.863588 -0.000051 -78.779579 -0.000039 0.000000 0.000000 0.000000 4.519716 -1.316296 2.156810 -2.354566 -5.768611 -20.661414 -88.017526 8.608123 67.413072 0.000079 73.093987 -0.000081 0.000000 0.000000 0.000000 
1.669490 85.867447 10.131137 0.000000 0.000000 0.000000 -7.234752 11.875081 -0.163483 -81.222431 9.073287 8.000113 110.543709 10.211929 1.712910 54.197599 4.019290 10.091302 0.000000 0.000000 0.000000 -7.234752 11.875081 -0.163483 -31.456149 -7.595927 1.170767 60.676709 1.114509 1.176627 -19.460059 4.141604 -7.915731 0.000000 0.000000 0.000000 -7.234752 11.875081 -0.163483 0.000000 0.000000 0.000000 14.891972 1.223868 0.213007 4.517213 -1.688272 1.794078 0.000000 0.000000 0.000000 4.516828 -1.391459 1.872304 3.632746 0.716344 -0.931838 0.000000 0.000000 0.000000 4.516828 -1.391459 1.872304 1.043108 -5.624973 19.137896 -87.822566 -10.431774 -68.173368 -0.000154 -82.383618 -0.000171 0.000000 0.000000 0.000000 4.516828 -1.391459 1.872304 -3.434366 -8.885737 -23.009316 -91.015693 5.975826 69.995068 0.000013 75.624783 -0.000023 0.000000 0.000000 0.000000 
